<?xml version="1.0" standalone="no"?><!DOCTYPE svg PUBLIC "-//W3C//DTD SVG 1.1//EN" "http://www.w3.org/Graphics/SVG/1.1/DTD/svg11.dtd"><svg class="icon" height="512" viewBox="0 0 1024 1024" version="1.1" xmlns="http://www.w3.org/2000/svg"><path d="M512 85.333333C277.333333 85.333333 85.333333 277.333333 85.333333 512s192 426.666667 426.666667 426.666667 426.666667-192 426.666667-426.666667S746.666667 85.333333 512 85.333333z m0 810.666667c-211.2 0-384-172.8-384-384S300.8 128 512 128s384 172.8 384 384-172.8 384-384 384z m187.733333-556.8l-256 256-121.6-121.6c-17.066667-17.066667-42.666667-17.066667-59.733333 0s-17.066667 42.666667 0 59.733333l151.466667 151.466667c17.066667 17.066667 42.666667 17.066667 59.733333 0l285.866667-285.866667c17.066667-17.066667 17.066667-42.666667 0-59.733333-14.933333-17.066667-42.666667-17.066667-59.733334 0z" fill="#1EAA39" /></svg>